<svg width="24" height="24" viewBox="0 0 24 24" fill="none" xmlns="http://www.w3.org/2000/svg">
<path d="M10.742 2.04C9.338 2.223 7.682 2.848 6.461 3.666C5.451 4.33 4.064 5.686 4.152 5.917C4.345 6.418 7.432 11.575 7.482 11.479C7.52 11.412 7.577 11.2 7.605 10.989C7.855 9.604 9.03 8.285 10.502 7.736C11.07 7.515 11.185 7.515 15.997 7.466L20.914 7.419L20.519 6.773C19.134 4.513 16.997 2.954 14.322 2.261C13.591 2.068 11.512 1.943 10.742 2.041V2.04Z" fill="#DD4337"/>
<path d="M3.2 7.217C2.747 8.016 2.217 9.632 2.093 10.575C1.505 14.848 3.661 18.975 7.472 20.89C8.366 21.342 9.646 21.775 10.204 21.823L10.56 21.852L12.234 19.014C13.149 17.455 13.889 16.165 13.87 16.146C13.85 16.127 13.639 16.185 13.389 16.271C11.82 16.801 10.002 16.357 8.819 15.155C8.395 14.731 7.817 13.798 5.979 10.613C4.71 8.41 3.642 6.601 3.603 6.601C3.575 6.601 3.392 6.88 3.2 7.217Z" fill="#109D58"/>
<path d="M15.15 8.804C16.372 10.046 16.805 11.807 16.266 13.394C16.18 13.654 15.054 15.665 13.765 17.879C12.475 20.082 11.416 21.91 11.416 21.939C11.416 22.054 12.744 21.996 13.591 21.852C17.911 21.112 21.164 17.85 21.856 13.576C22.116 12.018 22.02 10.651 21.549 9.073L21.299 8.236H14.592L15.149 8.804H15.15Z" fill="#FFCE41"/>
<path d="M10.608 8.563C9.598 8.987 8.905 9.7 8.53 10.71C8.357 11.163 8.328 11.423 8.357 12.134C8.387 12.884 8.425 13.097 8.704 13.645C9.07 14.395 9.666 14.974 10.455 15.348C10.917 15.569 11.109 15.598 11.995 15.598C12.89 15.598 13.072 15.569 13.554 15.338C14.266 15.012 15.016 14.261 15.344 13.548C15.574 13.068 15.603 12.885 15.603 11.99C15.603 11.104 15.574 10.912 15.353 10.45C14.978 9.662 14.401 9.064 13.65 8.7C13.082 8.42 12.908 8.382 12.09 8.352C11.302 8.333 11.1 8.362 10.61 8.565L10.608 8.563Z" fill="#4385F6"/>
</svg>
