<svg width="148" height="148" viewBox="0 0 148 148" fill="none" xmlns="http://www.w3.org/2000/svg">
<rect x="2.83254" y="2.83254" width="142.335" height="142.335" rx="37.5311" fill="url(#paint0_linear)" stroke="black" stroke-width="5.66507"/>
<path d="M91.6571 56.3429C101.212 56.3429 108.96 48.5898 108.96 39.0451C108.96 29.4952 101.212 21.7421 91.6571 21.7421H74.354H57.051C47.4959 21.7421 39.748 29.4952 39.748 39.0451C39.748 48.5898 47.4959 56.3429 57.051 56.3429C47.4959 56.3429 39.748 64.0961 39.748 73.6511C39.748 83.201 47.4959 90.9542 57.051 90.9542C47.4959 90.9542 39.748 98.7073 39.748 108.257C39.748 117.812 47.4959 125.56 57.051 125.56C66.6061 125.56 74.354 117.802 74.354 108.252V90.949V73.646V56.3429H91.6571Z" fill="white"/>
<path d="M91.6571 90.9491C101.213 90.9491 108.96 83.2022 108.96 73.646C108.96 64.0898 101.213 56.343 91.6571 56.343C82.1009 56.343 74.3541 64.0898 74.3541 73.646C74.3541 83.2022 82.1009 90.9491 91.6571 90.9491Z" fill="white"/>
<defs>
<linearGradient id="paint0_linear" x1="148" y1="-8.72242e-06" x2="-29.4616" y2="89.7386" gradientUnits="userSpaceOnUse">
<stop stop-color="#10004F"/>
<stop offset="1" stop-color="#2F01E7"/>
</linearGradient>
</defs>
</svg>
